<?xml version="1.0" encoding="UTF-8" standalone="no"?>
<svg
   id="svg8"
   version="1.1"
   viewBox="0 0 14 14"
   height="1.4cm"
   width="1.4cm"
   sodipodi:docname="mws_logo_outline.svg"
   inkscape:version="1.2.2 (732a01da63, 2022-12-09)"
   xmlns:inkscape="http://www.inkscape.org/namespaces/inkscape"
   xmlns:sodipodi="http://sodipodi.sourceforge.net/DTD/sodipodi-0.dtd"
   xmlns="http://www.w3.org/2000/svg"
   xmlns:svg="http://www.w3.org/2000/svg"
   xmlns:rdf="http://www.w3.org/1999/02/22-rdf-syntax-ns#"
   xmlns:cc="http://creativecommons.org/ns#"
   xmlns:dc="http://purl.org/dc/elements/1.1/">
  <sodipodi:namedview
     id="namedview20"
     pagecolor="#505050"
     bordercolor="#eeeeee"
     borderopacity="1"
     inkscape:showpageshadow="0"
     inkscape:pageopacity="0"
     inkscape:pagecheckerboard="0"
     inkscape:deskcolor="#505050"
     inkscape:document-units="cm"
     showgrid="false"
     showguides="true"
     inkscape:zoom="15.667113"
     inkscape:cx="35.32878"
     inkscape:cy="24.892907"
     inkscape:window-width="1920"
     inkscape:window-height="1009"
     inkscape:window-x="-8"
     inkscape:window-y="-4"
     inkscape:window-maximized="1"
     inkscape:current-layer="layer1" />
  <defs
     id="defs2" />
  <metadata
     id="metadata5">
    <rdf:RDF>
      <cc:Work
         rdf:about="">
        <dc:format>image/svg+xml</dc:format>
        <dc:type
           rdf:resource="http://purl.org/dc/dcmitype/StillImage" />
      </cc:Work>
    </rdf:RDF>
  </metadata>
  <g
     transform="translate(-23.375834,-34.820791)"
     id="layer1">
    <path
       id="path4635"
       style="fill:#ffffff;fill-opacity:1;stroke:none;stroke-width:0.64953899;stroke-miterlimit:4;stroke-dasharray:none;stroke-dashoffset:0;stroke-opacity:1"
       d="M 30.404346 35.191828 L 29.18995 35.893077 L 29.441097 36.328709 L 26.142074 38.233503 L 25.890409 37.79787 L 24.676013 38.49912 L 24.676013 39.901618 L 25.178825 39.901618 L 25.178825 43.711205 L 24.676013 43.711205 L 24.676013 45.113703 L 25.890409 45.814952 L 26.142074 45.37932 L 29.441097 47.284113 L 29.18995 47.719746 L 30.404346 48.420995 L 31.618742 47.719746 L 31.367595 47.284113 L 34.666618 45.37932 L 34.918282 45.814952 L 36.132679 45.113703 L 36.132679 43.711205 L 35.629867 43.711205 L 35.629867 39.901618 L 36.132679 39.901618 L 36.132679 38.49912 L 34.918282 37.79787 L 34.666618 38.233503 L 31.367595 36.328709 L 31.618742 35.893077 L 30.404346 35.191828 z M 30.404346 35.772671 L 30.51545 35.83675 L 30.51545 37.530703 L 34.051669 39.572439 L 35.518763 38.725462 L 35.629867 38.789541 L 35.629867 38.917699 L 34.162773 39.764675 L 34.162773 43.848147 L 35.629867 44.695124 L 35.629867 44.823282 L 35.518246 44.88736 L 34.051669 44.040384 L 30.51545 46.08212 L 30.51545 47.776073 L 30.404346 47.840152 L 30.293242 47.776073 L 30.293242 46.08212 L 26.757023 44.040384 L 25.290446 44.88736 L 25.178825 44.823282 L 25.178825 44.695124 L 26.645919 43.848147 L 26.645919 39.764675 L 25.178825 38.917699 L 25.178825 38.789541 L 25.289929 38.725462 L 26.757023 39.572439 L 30.293242 37.530703 L 30.293242 35.83675 L 30.404346 35.772671 z M 30.404346 37.900707 L 27.021606 39.853559 L 27.021606 43.759264 L 30.404346 45.712116 L 33.787085 43.759264 L 33.787085 39.853559 L 30.404346 37.900707 z M 30.293242 38.179759 L 30.293242 39.29287 L 28.283028 40.453522 L 27.318746 39.896967 L 30.293242 38.179759 z M 30.51545 38.179759 L 33.489946 39.896967 L 32.525664 40.453522 L 30.51545 39.29287 L 30.51545 38.179759 z M 30.404346 39.479938 L 32.308106 40.579096 L 30.432768 41.661717 C 30.421308 41.668327 30.412446 41.677539 30.404346 41.687039 C 30.396276 41.677519 30.387384 41.668317 30.375924 41.661717 L 28.500586 40.579096 L 30.404346 39.479938 z M 27.207642 40.089204 L 28.171924 40.645759 L 28.171924 42.967064 L 27.207642 43.523619 L 27.207642 40.089204 z M 33.60105 40.089204 L 33.60105 43.523619 L 32.636768 42.967064 L 32.636768 40.645759 L 33.60105 40.089204 z M 28.389998 40.771849 L 30.264819 41.854471 C 30.276329 41.861151 30.288663 41.864256 30.300993 41.866356 C 30.296793 41.878086 30.293242 41.890363 30.293242 41.903563 L 30.293242 44.068806 L 28.389998 42.969648 L 28.389998 40.771849 z M 32.41921 40.771849 L 32.41921 42.969648 L 30.51545 44.068806 L 30.51545 41.903563 C 30.51545 41.890353 30.511899 41.878076 30.507699 41.866356 C 30.520029 41.864176 30.532362 41.861071 30.543872 41.854471 L 32.41921 40.771849 z M 28.283028 43.1593 L 30.293242 44.319953 L 30.293242 45.43358 L 27.318746 43.715856 L 28.283028 43.1593 z M 32.525664 43.1593 L 33.489946 43.715856 L 30.51545 45.43358 L 30.51545 44.319953 L 32.525664 43.1593 z " />
  </g>
</svg>
